<svg width="24" height="24" viewBox="0 0 24 24" fill="none" xmlns="http://www.w3.org/2000/svg">
<path d="M11.946 6.33081C8.84058 6.33081 6.33569 8.83569 6.33569 11.9412C6.33569 15.0466 8.84058 17.5515 11.946 17.5515C15.0515 17.5515 17.5564 15.0466 17.5564 11.9412C17.5564 8.83569 15.0515 6.33081 11.946 6.33081ZM11.946 15.5886C9.93921 15.5886 8.29858 13.9529 8.29858 11.9412C8.29858 9.92944 9.93433 8.2937 11.946 8.2937C13.9578 8.2937 15.5935 9.92944 15.5935 11.9412C15.5935 13.9529 13.9529 15.5886 11.946 15.5886ZM19.0945 6.10132C19.0945 6.82886 18.5085 7.40991 17.7859 7.40991C17.0584 7.40991 16.4773 6.82397 16.4773 6.10132C16.4773 5.37866 17.0632 4.79272 17.7859 4.79272C18.5085 4.79272 19.0945 5.37866 19.0945 6.10132ZM22.8103 7.42944C22.7273 5.67651 22.3269 4.12378 21.0427 2.84448C19.7634 1.56519 18.2107 1.16479 16.4578 1.0769C14.6511 0.974365 9.23608 0.974365 7.42944 1.0769C5.6814 1.15991 4.12866 1.5603 2.84448 2.8396C1.5603 4.1189 1.16479 5.67163 1.0769 7.42456C0.974365 9.2312 0.974365 14.6462 1.0769 16.4529C1.15991 18.2058 1.5603 19.7585 2.84448 21.0378C4.12866 22.3171 5.67651 22.7175 7.42944 22.8054C9.23608 22.908 14.6511 22.908 16.4578 22.8054C18.2107 22.7224 19.7634 22.322 21.0427 21.0378C22.322 19.7585 22.7224 18.2058 22.8103 16.4529C22.9128 14.6462 22.9128 9.23608 22.8103 7.42944ZM20.4763 18.3914C20.0955 19.3484 19.3582 20.0857 18.3962 20.4714C16.9558 21.0427 13.5378 20.9109 11.946 20.9109C10.3542 20.9109 6.9314 21.0378 5.49585 20.4714C4.53882 20.0906 3.80151 19.3533 3.41577 18.3914C2.84448 16.9509 2.97632 13.533 2.97632 11.9412C2.97632 10.3494 2.84937 6.92651 3.41577 5.49097C3.79663 4.53394 4.53394 3.79663 5.49585 3.41089C6.93628 2.8396 10.3542 2.97144 11.946 2.97144C13.5378 2.97144 16.9607 2.84448 18.3962 3.41089C19.3533 3.79175 20.0906 4.52905 20.4763 5.49097C21.0476 6.9314 20.9158 10.3494 20.9158 11.9412C20.9158 13.533 21.0476 16.9558 20.4763 18.3914Z" fill="white"/>
</svg>
